/* XPM */
static char * tile32_xpm[] = {
"32 32 475 2",
"  	c #ECECED",
". 	c #EDEDEE",
"+ 	c #EBEBED",
"@ 	c #EBEBEC",
"# 	c #E9E9EA",
"$ 	c #E9E9E9",
"% 	c #E8E8E8",
"& 	c #E6E6E6",
"* 	c #E5E5E5",
"= 	c #E4E4E5",
"- 	c #E1E1E2",
"; 	c #E1E1E1",
"> 	c #E0E0E0",
", 	c #DEDEDE",
"' 	c #DDDDDE",
") 	c #DDDDDD",
"! 	c #DBDBDC",
"~ 	c #DADADB",
"{ 	c #D8D8D8",
"] 	c #D7D7D8",
"^ 	c #D7D7D7",
"/ 	c #D6D6D7",
"( 	c #D6D6D6",
"_ 	c #D1D1D2",
": 	c #757677",
"< 	c #ECECEE",
"[ 	c #E4E4E8",
"} 	c #DEDEE5",
"| 	c #DEDEE3",
"1 	c #DCDCE2",
"2 	c #DBDBE1",
"3 	c #D8D8DF",
"4 	c #D7D7DE",
"5 	c #D5D6DD",
"6 	c #D4D4DB",
"7 	c #D3D3DA",
"8 	c #D2D1D9",
"9 	c #D0D0D8",
"0 	c #CECED6",
"a 	c #CCCCD4",
"b 	c #CBCBD4",
"c 	c #CACAD3",
"d 	c #C8C8D1",
"e 	c #C6C6CE",
"f 	c #C4C4CC",
"g 	c #C2C2CA",
"h 	c #BFBFC8",
"i 	c #BEBDC6",
"j 	c #BCBBC5",
"k 	c #B9B8C3",
"l 	c #B5B5C0",
"m 	c #B2B2BD",
"n 	c #B0AFBA",
"o 	c #ABAAB5",
"p 	c #A4A3AF",
"q 	c #93929F",
"r 	c #3E3F46",
"s 	c #EAEAEB",
"t 	c #DFDFE4",
"u 	c #DADAE1",
"v 	c #D6D6DD",
"w 	c #D3D4DB",
"x 	c #D2D2DA",
"y 	c #D1D1D9",
"z 	c #CFCFD7",
"A 	c #CDCDD6",
"B 	c #C9C9D2",
"C 	c #C7C7D0",
"D 	c #C5C5CE",
"E 	c #C3C3CC",
"F 	c #C1C1CA",
"G 	c #BEBEC8",
"H 	c #BCBBC6",
"I 	c #BBBAC4",
"J 	c #B9B8C2",
"K 	c #B4B4BF",
"L 	c #B1B1BD",
"M 	c #AEADBA",
"N 	c #ABAAB7",
"O 	c #A8A7B3",
"P 	c #9F9FAB",
"Q 	c #9494A1",
"R 	c #878793",
"S 	c #3B3B41",
"T 	c #EAEAEA",
"U 	c #D6D7DE",
"V 	c #D2D3DA",
"W 	c #CFCFD8",
"X 	c #C6C6D0",
"Y 	c #BDBCC7",
"Z 	c #BBBAC5",
"` 	c #B6B5C1",
" .	c #B3B2BE",
"..	c #AFAFBB",
"+.	c #ADACB8",
"@.	c #A9A7B4",
"#.	c #A3A2AF",
"$.	c #9A9AA6",
"%.	c #90909E",
"&.	c #838492",
"*.	c #37373D",
"=.	c #D9D9E0",
"-.	c #D5D5DC",
";.	c #CCCCD5",
">.	c #C7C7D1",
",.	c #C5C5CF",
"'.	c #C2C2CB",
").	c #BDBDC7",
"!.	c #BAB9C4",
"~.	c #B8B7C2",
"{.	c #B5B4C0",
"].	c #B2B1BD",
"^.	c #ACACB8",
"/.	c #ABAAB6",
"(.	c #A8A7B4",
"_.	c #A5A5B1",
":.	c #A0A0AC",
"<.	c #9696A3",
"[.	c #8F8E9B",
"}.	c #82818F",
"|.	c #35343B",
"1.	c #E7E7E8",
"2.	c #D7D8DE",
"3.	c #CDCDD5",
"4.	c #C8C8D2",
"5.	c #C4C4CD",
"6.	c #B7B5C1",
"7.	c #B4B3BF",
"8.	c #AFAEBB",
"9.	c #A3A3AF",
"0.	c #9D9DAA",
"a.	c #9494A2",
"b.	c #8C8B9A",
"c.	c #7F7E8D",
"d.	c #33333A",
"e.	c #D7D7DD",
"f.	c #ADACB9",
"g.	c #A9A8B4",
"h.	c #A4A4B0",
"i.	c #A1A1AE",
"j.	c #9B9BA7",
"k.	c #92929F",
"l.	c #8A8997",
"m.	c #7C7C8B",
"n.	c #32323A",
"o.	c #E5E6E6",
"p.	c #D4D5DB",
"q.	c #BCBDC7",
"r.	c #BBBBC5",
"s.	c #B5B3C0",
"t.	c #9E9EAB",
"u.	c #9898A5",
"v.	c #90909D",
"w.	c #878794",
"x.	c #7A7A88",
"y.	c #323138",
"z.	c #E3E3E4",
"A.	c #CECED7",
"B.	c #C6C6CF",
"C.	c #BBBBC6",
"D.	c #B7B6C2",
"E.	c #B2B2BE",
"F.	c #B0B0BC",
"G.	c #AEAEBA",
"H.	c #9E9FAB",
"I.	c #9B9BA8",
"J.	c #9696A2",
"K.	c #8E8E9A",
"L.	c #858593",
"M.	c #787886",
"N.	c #312F36",
"O.	c #E2E2E3",
"P.	c #ADADBA",
"Q.	c #ACABB8",
"R.	c #9999A6",
"S.	c #9494A0",
"T.	c #8C8C98",
"U.	c #838390",
"V.	c #767683",
"W.	c #302F35",
"X.	c #CBCBD3",
"Y.	c #C3C3CD",
"Z.	c #BCBCC6",
"`.	c #B8B8C3",
" +	c #B7B6C1",
".+	c #B0AFBB",
"++	c #9797A3",
"@+	c #92929E",
"#+	c #898996",
"$+	c #80808F",
"%+	c #747482",
"&+	c #2E2D32",
"*+	c #DFDFDF",
"=+	c #BEBEC7",
"-+	c #B7B8C3",
";+	c #B5B5C1",
">+	c #B3B3BF",
",+	c #9898A4",
"'+	c #9596A1",
")+	c #90909C",
"!+	c #7F808D",
"~+	c #73737F",
"{+	c #2C2B30",
"]+	c #C4C4CE",
"^+	c #B9B9C3",
"/+	c #AAA9B6",
"(+	c #A7A7B4",
"_+	c #8E8D9B",
":+	c #7D7D8B",
"<+	c #70717D",
"[+	c #29292D",
"}+	c #C0C0C9",
"|+	c #AEAEBB",
"1+	c #ACACB9",
"2+	c #ABABB8",
"3+	c #A6A6B3",
"4+	c #9595A1",
"5+	c #8C8B99",
"6+	c #848492",
"7+	c #7A7A89",
"8+	c #6D6D7B",
"9+	c #28272C",
"0+	c #BEBDC7",
"a+	c #A9A9B5",
"b+	c #A6A6B2",
"c+	c #9595A2",
"d+	c #93939F",
"e+	c #8F8F9D",
"f+	c #777786",
"g+	c #6C6B79",
"h+	c #26262B",
"i+	c #BABAC4",
"j+	c #ABABB7",
"k+	c #9393A0",
"l+	c #8C8C99",
"m+	c #868694",
"n+	c #7E7D8C",
"o+	c #767684",
"p+	c #696977",
"q+	c #24242A",
"r+	c #DADADA",
"s+	c #B8B8C2",
"t+	c #A8A8B4",
"u+	c #A0A1AD",
"v+	c #8C8C9A",
"w+	c #898997",
"x+	c #7C7B8B",
"y+	c #676775",
"z+	c #232429",
"A+	c #B8B7C1",
"B+	c #B5B4BF",
"C+	c #B0B1BC",
"D+	c #A5A5B2",
"E+	c #A3A3B0",
"F+	c #A0A0AD",
"G+	c #9C9CA9",
"H+	c #8F8E9D",
"I+	c #838391",
"J+	c #71717F",
"K+	c #656473",
"L+	c #222227",
"M+	c #A7A8B4",
"N+	c #A5A5B0",
"O+	c #9B9BA9",
"P+	c #8D8C9A",
"Q+	c #898998",
"R+	c #6F6F7D",
"S+	c #626270",
"T+	c #222126",
"U+	c #BDBCC6",
"V+	c #B4B4C0",
"W+	c #AFAFBC",
"X+	c #ABABB6",
"Y+	c #A2A2AF",
"Z+	c #7E7E8C",
"`+	c #757583",
" @	c #6C6C79",
".@	c #61616D",
"+@	c #212125",
"@@	c #A7A7B3",
"#@	c #A09FAC",
"$@	c #9F9EAB",
"%@	c #82828F",
"&@	c #7B7B89",
"*@	c #72727F",
"=@	c #6B6B78",
"-@	c #5E5F6C",
";@	c #1E1E23",
">@	c #B8B9C3",
",@	c #B2B2BF",
"'@	c #ACABB7",
")@	c #AAA9B5",
"!@	c #A1A0AD",
"~@	c #9E9EAA",
"{@	c #9797A4",
"]@	c #82838F",
"^@	c #7F7F8D",
"/@	c #787887",
"(@	c #696976",
"_@	c #5D5D6A",
":@	c #1D1D21",
"<@	c #B6B6C2",
"[@	c #A9A8B5",
"}@	c #9F9EAA",
"|@	c #9A9AA7",
"1@	c #9999A5",
"2@	c #9596A2",
"3@	c #807F8E",
"4@	c #7D7C8B",
"5@	c #6F6F7C",
"6@	c #666674",
"7@	c #5B5B66",
"8@	c #1C1C1F",
"9@	c #B4B5C0",
"0@	c #A4A4B1",
"a@	c #A2A3AF",
"b@	c #94939F",
"c@	c #91919E",
"d@	c #7D7C8C",
"e@	c #7B7A8A",
"f@	c #6D6D7A",
"g@	c #656571",
"h@	c #595965",
"i@	c #1B1B1F",
"j@	c #9FA0AC",
"k@	c #9695A1",
"l@	c #9493A0",
"m@	c #91909E",
"n@	c #8F8E9C",
"o@	c #8D8C99",
"p@	c #807F8D",
"q@	c #7D7D8C",
"r@	c #7B7B8A",
"s@	c #62626F",
"t@	c #565663",
"u@	c #19191D",
"v@	c #9897A3",
"w@	c #8E8E9B",
"x@	c #7B7B8B",
"y@	c #797988",
"z@	c #747483",
"A@	c #6F6E7C",
"B@	c #686775",
"C@	c #61606D",
"D@	c #555560",
"E@	c #ADADB8",
"F@	c #9F9FAC",
"G@	c #9C9CAA",
"H@	c #9796A3",
"I@	c #8F8F9C",
"J@	c #8B8B99",
"K@	c #7A7988",
"L@	c #747383",
"M@	c #707080",
"N@	c #6B6A79",
"O@	c #636371",
"P@	c #51515E",
"Q@	c #18171C",
"R@	c #AAAAB5",
"S@	c #A1A2AE",
"T@	c #9D9EAB",
"U@	c #9A9AA8",
"V@	c #9797A5",
"W@	c #91919F",
"X@	c #908F9E",
"Y@	c #8C8C9B",
"Z@	c #878795",
"`@	c #838290",
" #	c #81808F",
".#	c #777784",
"+#	c #727280",
"@#	c #70707E",
"##	c #6E6D7C",
"$#	c #6A697A",
"%#	c #656575",
"&#	c #5F5E6E",
"*#	c #575767",
"=#	c #4C4D5B",
"-#	c #16171B",
";#	c #90909F",
">#	c #8E8D9C",
",#	c #8B8A9A",
"'#	c #898898",
")#	c #878696",
"!#	c #838491",
"~#	c #80818F",
"{#	c #787785",
"]#	c #767583",
"^#	c #737380",
"/#	c #706F7D",
"(#	c #6F6F7B",
"_#	c #6C6C7A",
":#	c #6A6978",
"<#	c #686776",
"[#	c #666575",
"}#	c #636372",
"|#	c #5F5F6E",
"1#	c #585767",
"2#	c #525261",
"3#	c #484857",
"4#	c #15151A",
"5#	c #D5D5D6",
"6#	c #9E9EA9",
"7#	c #8A8999",
"8#	c #878796",
"9#	c #858493",
"0#	c #838392",
"a#	c #808090",
"b#	c #737281",
"c#	c #71707D",
"d#	c #6E6D7B",
"e#	c #6B6B79",
"f#	c #696978",
"g#	c #656573",
"h#	c #646472",
"i#	c #616170",
"j#	c #605F6E",
"k#	c #5E5E6C",
"l#	c #5C5B6B",
"m#	c #515161",
"n#	c #4C4C5B",
"o#	c #424250",
"p#	c #121317",
"q#	c #D5D5D5",
"r#	c #91919D",
"s#	c #808190",
"t#	c #7B7A89",
"u#	c #797888",
"v#	c #757483",
"w#	c #6B6A78",
"x#	c #676774",
"y#	c #63626F",
"z#	c #5F606D",
"A#	c #5D5E6C",
"B#	c #5B5C69",
"C#	c #5A5A67",
"D#	c #575865",
"E#	c #565664",
"F#	c #545362",
"G#	c #525260",
"H#	c #51515F",
"I#	c #4D4D5C",
"J#	c #40404E",
"K#	c #2D2D37",
"L#	c #08080B",
"M#	c #B5B5B5",
"N#	c #4A494E",
"O#	c #3A3A41",
"P#	c #37363C",
"Q#	c #36343A",
"R#	c #343339",
"S#	c #323239",
"T#	c #313037",
"U#	c #302E35",
"V#	c #2E2E33",
"W#	c #2C2C31",
"X#	c #2B2A2F",
"Y#	c #2A292E",
"Z#	c #29282D",
"`#	c #25252A",
" $	c #232329",
".$	c #202025",
"+$	c #1F1F24",
"@$	c #1D1E22",
"#$	c #1C1C21",
"$$	c #1B1C20",
"%$	c #1B1A1F",
"&$	c #1A1A1E",
"*$	c #19181E",
"=$	c #18171D",
"-$	c #16161B",
";$	c #141319",
">$	c #111015",
",$	c #07080A",
"'$	c #010101",
"  . + @ # $ % & * = - ; > , ' ) ! ~ { ] ] ] ] ] ^ / / / / ( _ : ",
"< [ } | 1 2 3 4 5 6 7 8 9 0 a b c d e f g h i j k l m n o p q r ",
"s t 1 u 3 v 5 w x y z A b c B C D E F G H I J K L M N O P Q R S ",
"T 1 3 U 5 6 V y W 0 a c B X D E F h Y Z k `  ...+.N @.#.$.%.&.*.",
"$ =.v -.7 y z 0 ;.b B >.,.E '.F ).j !.~.{.]...^./.(._.:.<.[.}.|.",
"1.2.6 x 9 0 3.b c 4.,.5.'.F h ).Z k 6.7.].8.^.N (._.9.0.a.b.c.d.",
"& e.V z 3.b c B C D E '.h ).H Z J {. .].8.f.N g._.h.i.j.k.l.m.n.",
"o.p.y A c c d X D '.'.h q.r.!.~.s. .L 8.^./.(._.h.i.t.u.v.w.x.y.",
"z.7 A.b c C B.5.'.'.h q.C.!.D.7.E.F.G.^./.(._.h.i.H.I.J.K.L.M.N.",
"O.y ;.c d ,.5.'.'.h q.r.!.D.7.E.F.P.Q./.(._.h.i.H.I.R.S.T.U.V.W.",
"; z X.B B.Y.'.F h Z.r.`. +7.]..+P.Q./.(._.h.i.H.I.R.++@+#+$+%+&+",
"*+3.c C Y.'.F =+Z.r.-+;+>+]..+M Q.N (._.h.i.H.I.R.,+'+)+w.!+~+{+",
", a d ]+'.F ).Z.r.^+;+>+].8.P.Q./+(+_.h.i.H.I.R.,+J.Q _+L.:+<+[+",
", X.D '.}+).Z.r.^+;+E.L |+1+2+/+3+_.h.i.H.I.R.,+J.4+k.5+6+7+8+9+",
") d E }+0+H I k ;+E.L |+1+2+a+b+_.9.i.H.I.R.,+J.c+d+e+l.$+f+g+h+",
"! B.F ).r.i+k ;+E.L |+1+j+a+b+_.9.i.H.I.R.,+J.4+k+e+l+m+n+o+p+q+",
"r+f =+Z !.s+{.E.F.P.1+j+t+b+_.9.u+H.I.R.,+J.c+d+e+v+w+6+x+%+y+z+",
"] g H !.A+B+E.C+P.^.j+t+D+_.E+F+H.G+R.,+J.4+k+H+v+w+#+I+7+J+K+L+",
"] h !.~.B+m ..P.^./.M+_.N+E+F+H.O+R.,+<.4+d+e+P+Q+#+m+$+f+R+S+T+",
"] U+D.V+m W+G.^.X+O _.h.Y+F+P O+R.,+<.4+d+e+v+Q+#+m+6+Z+`+ @.@+@",
"] r.V+E...P.^./.@@_.h.i.#@$@O+R.,+<.4+d+H+v+Q+#+m+6+%@&@*@=@-@;@",
"^ >@,@..M '@)@b+_.E+!@P ~@I.R.{@<.4+d+e+v+Q+#+m+6+]@^@/@J+(@_@:@",
"^ <@F.f.N [@b+_.E+#@}@G+|@1@++2@S.k.H+v+Q+#+m+6+]@3@4@o+5@6@7@8@",
"/ 9@P.N t+b+0@a@:.~@I.R.,+J.4+b@c@e+P+Q+#+m+6+]@3@d@e@`+f@g@h@i@",
"/ m j+(.D+0@Y+j@~@I.1@++k@l@q m@n@o@Q+#+m+6+]@p@q@r@/@*@=@s@t@u@",
"/ .+(.D+0@Y+j@~@I.1@v@J.S.@+%.w@T.Q+#+m+6+]@p@d@x@y@z@A@B@C@D@u@",
"/ E@D+h.i.F@G@1@H@Q k+m@I@K.J@#+m+L.I+}.!+m.&@K@f+L@M@N@O@_@P@Q@",
"( R@S@T@U@V@a.W@X@Y@5+w+Z@L.`@ #3@n+&@K@.#o+%++#@###$#%#&#*#=#-#",
"( N+|@a.;#>#,#'#)#L.!#~#^@m.7+y@{#]#^#*@/#(#_#:#<#[#}#|#1#2#3#4#",
"5#6#%.7#8#9#0#a#^@m.&@/@o+z@b#J+c#d#e#f#(@g#h#i#j#k#l#1#m#n#o#p#",
"q#r#s#q@t#u#f+v#^#@#5@f@g+w#<#x#O@y#z#A#B#C#D#E#F#G#H#I#3#J#K#L#",
"M#N#O#P#Q#R#S#T#U#V#W#X#Y#Z#h+`# $T+.$+$@$#$$$%$&$*$=$-$;$>$,$'$"};
